<svg width="16" height="16" viewBox="0 0 16 16" fill="none" xmlns="http://www.w3.org/2000/svg">
<path d="M7.44867 12.4487L7.09512 12.8022L7.31286 13.02L7.6053 12.9235L7.44867 12.4487ZM3.55151 8.55149L3.07668 8.39487L2.98022 8.6873L3.19796 8.90505L3.55151 8.55149ZM14.9589 1.04121L15.4571 0.998192L15.4209 0.579236L15.0019 0.543061L14.9589 1.04121ZM7.80222 12.0951L3.90507 8.19794L3.19796 8.90505L7.09512 12.8022L7.80222 12.0951ZM14.0001 0.5C8.90736 0.5 4.58901 3.8101 3.07668 8.39487L4.02635 8.70812C5.40752 4.52099 9.35167 1.5 14.0001 1.5V0.5ZM15.0019 0.543061C14.6717 0.514545 14.3375 0.5 14.0001 0.5V1.5C14.3088 1.5 14.6142 1.5133 14.9159 1.53935L15.0019 0.543061ZM15.5001 2.00006C15.5001 1.66262 15.4856 1.32846 15.4571 0.998192L14.4608 1.08422C14.4868 1.38592 14.5001 1.69138 14.5001 2.00006H15.5001ZM7.6053 12.9235C12.19 11.4111 15.5001 7.09281 15.5001 2.00006H14.5001C14.5001 6.64849 11.4791 10.5926 7.29204 11.9738L7.6053 12.9235Z" fill="#09FA9A"/>
<path d="M4 12L3 13" stroke="#09FA9A" stroke-linecap="round"/>
<path d="M5.5 13.5L4.5 14.5" stroke="#09FA9A" stroke-linecap="round"/>
<path d="M2.5 10.5L1.5 11.5" stroke="#09FA9A" stroke-linecap="round"/>
<circle cx="9" cy="7" r="1" stroke="#09FA9A"/>
<path d="M10 2L14 6" stroke="#09FA9A" stroke-linecap="round"/>
<path d="M10 11.5V15L1 6H4.5" stroke="#09FA9A" stroke-linecap="round" stroke-linejoin="round"/>
</svg>
